<svg
              width="20"
              height="20"
              viewBox="0 0 20 20"
              fill="none"
              xmlns="http://www.w3.org/2000/svg"
              className="">
              <path
                d="M9.58798 2.73781L10 3.33711L10.412 2.73781C11.3298 1.40284 12.8196 0.5 14.5455 0.5C17.2693 0.5 19.5 2.73069 19.5 5.45455C19.5 6.68011 18.932 8.11824 18.0109 9.62564C17.0966 11.1216 15.87 12.6291 14.6314 13.9803C13.3946 15.3295 12.1562 16.5118 11.2262 17.3573C10.7615 17.7798 10.3745 18.1174 10.1043 18.3491C10.0673 18.3808 10.0325 18.4105 10 18.4381C9.96749 18.4105 9.93269 18.3808 9.89571 18.3491C9.62548 18.1174 9.23854 17.7798 8.77384 17.3573C7.84378 16.5118 6.60537 15.3295 5.36858 13.9803C4.13 12.6291 2.90336 11.1216 1.98914 9.62564C1.06795 8.11824 0.5 6.68011 0.5 5.45455C0.5 2.73069 2.73069 0.5 5.45455 0.5C7.18036 0.5 8.67019 1.40284 9.58798 2.73781Z"
                stroke="black"></path>
            </svg>